#N canvas 831 151 1780 1016 12;
#X msg 452 413 62;
#X msg 419 413 60;
#X msg 485 414 64;
#X msg 519 414 65;
#X msg 553 413 67;
#X msg 586 412 69;
#X msg 618 412 70;
#X msg 652 413 72;
#X obj 343 641 noteout 1;
#X obj 401 158 tgl 19 0 empty empty empty 0 -10 0 12 #fcfcfc #000000 #000000 0 1;
#X obj 441 233 metro 600;
#X floatatom 462 188 5 0 0 0 - - - 0;
#X obj 410 280 bng 19 250 50 0 empty empty empty 0 -10 0 12 #fcfcfc #000000 #000000;
#X obj 441 280 random 8;
#X floatatom 440 311 5 0 0 0 - - - 0;
#X obj 438 342 sel 0 1 2 3 4 5 6 7;
#X obj 426 380 bng 19 250 50 0 empty empty empty 0 -10 0 12 #fcfcfc #000000 #000000;
#X obj 451 379 bng 19 250 50 0 empty empty empty 0 -10 0 12 #fcfcfc #000000 #000000;
#X obj 480 377 bng 19 250 50 0 empty empty empty 0 -10 0 12 #fcfcfc #000000 #000000;
#X obj 511 377 bng 19 250 50 0 empty empty empty 0 -10 0 12 #fcfcfc #000000 #000000;
#X obj 540 378 bng 19 250 50 0 empty empty empty 0 -10 0 12 #fcfcfc #000000 #000000;
#X obj 566 379 bng 19 250 50 0 empty empty empty 0 -10 0 12 #fcfcfc #000000 #000000;
#X obj 596 378 bng 19 250 50 0 empty empty empty 0 -10 0 12 #fcfcfc #000000 #000000;
#X obj 625 378 bng 19 250 50 0 empty empty empty 0 -10 0 12 #fcfcfc #000000 #000000;
#X floatatom 249 346 5 0 0 0 - - - 0;
#X msg 46 456 60 \, 64 \, 71 \, 74;
#X msg 169 454 65 \, 68 \, 72 \, 74;
#X msg 297 453 67 \, 71 \, 74 \, 81;
#X obj 101 426 bng 19 250 50 0 empty empty empty 0 -10 0 12 #fcfcfc #000000 #000000;
#X obj 241 427 bng 19 250 50 0 empty empty empty 0 -10 0 12 #fcfcfc #000000 #000000;
#X obj 308 426 bng 19 250 50 0 empty empty empty 0 -10 0 12 #fcfcfc #000000 #000000;
#X obj 172 293 bng 19 250 50 0 empty empty empty 0 -10 0 12 #fcfcfc #000000 #000000;
#X obj 247 393 sel 0 1 2 3;
#X obj 251 305 random 3;
#X obj 253 268 metro 2000;
#X obj 696 220 f;
#X msg 640 189 0;
#X floatatom 695 248 5 0 0 0 - - - 0;
#X floatatom 695 310 5 0 0 0 - - - 0;
#X obj 702 348 sel 0 1 2 3 4 5 6 7 8 9;
#X obj 695 276 % 10;
#X obj 702 441 bng 19 250 50 0 empty empty empty 0 -10 0 12 #fcfcfc #000000 #000000;
#X obj 744 440 bng 19 250 50 0 empty empty empty 0 -10 0 12 #fcfcfc #000000 #000000;
#X obj 787 438 bng 19 250 50 0 empty empty empty 0 -10 0 12 #fcfcfc #000000 #000000;
#X obj 833 439 bng 19 250 50 0 empty empty empty 0 -10 0 12 #fcfcfc #000000 #000000;
#X obj 873 439 bng 19 250 50 0 empty empty empty 0 -10 0 12 #fcfcfc #000000 #000000;
#X obj 916 440 bng 19 250 50 0 empty empty empty 0 -10 0 12 #fcfcfc #000000 #000000;
#X obj 953 440 bng 19 250 50 0 empty empty empty 0 -10 0 12 #fcfcfc #000000 #000000;
#X obj 1000 441 bng 19 250 50 0 empty empty empty 0 -10 0 12 #fcfcfc #000000 #000000;
#X obj 1037 440 bng 19 250 50 0 empty empty empty 0 -10 0 12 #fcfcfc #000000 #000000;
#X obj 1079 433 bng 19 250 50 0 empty empty empty 0 -10 0 12 #fcfcfc #000000 #000000;
#X msg 699 472 83;
#X msg 747 471 84;
#X msg 793 470 88;
#X msg 838 470 89;
#X msg 877 471 91;
#X msg 919 470 95;
#X msg 961 469 96;
#X msg 1002 469 98;
#X msg 1043 467 100;
#X msg 1087 465 101;
#X obj 747 221 + 1;
#X obj 699 161 metro 300;
#X obj 160 538 makenote 1000 1500;
#X obj 543 462 makenote 1000 600;
#X obj 700 532 makenote 1000 1000;
#X connect 0 0 64 0;
#X connect 1 0 64 0;
#X connect 2 0 64 0;
#X connect 3 0 64 0;
#X connect 4 0 64 0;
#X connect 5 0 64 0;
#X connect 6 0 64 0;
#X connect 7 0 64 0;
#X connect 9 0 34 0;
#X connect 9 0 62 0;
#X connect 9 0 10 0;
#X connect 10 0 12 0;
#X connect 10 0 13 0;
#X connect 11 0 10 1;
#X connect 13 0 14 0;
#X connect 14 0 15 0;
#X connect 15 0 16 0;
#X connect 15 1 17 0;
#X connect 15 2 18 0;
#X connect 15 3 19 0;
#X connect 15 4 20 0;
#X connect 15 5 21 0;
#X connect 15 6 22 0;
#X connect 15 7 23 0;
#X connect 15 8 16 0;
#X connect 16 0 1 0;
#X connect 17 0 0 0;
#X connect 18 0 2 0;
#X connect 19 0 3 0;
#X connect 20 0 4 0;
#X connect 21 0 5 0;
#X connect 22 0 6 0;
#X connect 23 0 7 0;
#X connect 24 0 32 0;
#X connect 25 0 63 0;
#X connect 26 0 63 0;
#X connect 27 0 63 0;
#X connect 28 0 25 0;
#X connect 29 0 26 0;
#X connect 30 0 27 0;
#X connect 32 0 28 0;
#X connect 32 1 29 0;
#X connect 32 2 30 0;
#X connect 33 0 24 0;
#X connect 34 0 31 0;
#X connect 34 0 33 0;
#X connect 35 0 37 0;
#X connect 35 0 61 0;
#X connect 36 0 35 0;
#X connect 37 0 40 0;
#X connect 38 0 39 0;
#X connect 39 0 44 0;
#X connect 39 1 41 0;
#X connect 39 2 43 0;
#X connect 39 3 45 0;
#X connect 39 4 48 0;
#X connect 39 5 46 0;
#X connect 39 6 49 0;
#X connect 39 7 47 0;
#X connect 39 8 42 0;
#X connect 39 9 50 0;
#X connect 40 0 38 0;
#X connect 41 0 51 0;
#X connect 42 0 52 0;
#X connect 43 0 53 0;
#X connect 44 0 54 0;
#X connect 45 0 55 0;
#X connect 46 0 56 0;
#X connect 47 0 57 0;
#X connect 48 0 58 0;
#X connect 49 0 59 0;
#X connect 50 0 60 0;
#X connect 51 0 65 0;
#X connect 52 0 65 0;
#X connect 53 0 65 0;
#X connect 54 0 65 0;
#X connect 55 0 65 0;
#X connect 56 0 65 0;
#X connect 57 0 65 0;
#X connect 58 0 65 0;
#X connect 59 0 65 0;
#X connect 60 0 65 0;
#X connect 61 0 35 1;
#X connect 62 0 35 0;
#X connect 63 0 8 0;
#X connect 63 1 8 1;
#X connect 64 0 8 0;
#X connect 64 1 8 1;
#X connect 65 0 8 0;
#X connect 65 1 8 1;
